<?xml version="1.0" standalone="no"?>
<!DOCTYPE svg PUBLIC "-//W3C//DTD SVG 20010904//EN"
 "http://www.w3.org/TR/2001/REC-SVG-20010904/DTD/svg10.dtd">
<svg version="1.0" xmlns="http://www.w3.org/2000/svg"
 width="4000.000000pt" height="4000.000000pt" viewBox="0 0 4000.000000 4000.000000"
 preserveAspectRatio="xMidYMid meet">
<metadata>
Created by potrace 1.14, written by Peter Selinger 2001-2017
</metadata>
<g transform="translate(0.000000,4000.000000) scale(0.100000,-0.100000)"
fill="#000000" stroke="none">
<path d="M19697 34174 c-1 -1 -83 -5 -182 -9 -184 -7 -211 -8 -375 -19 -111
-8 -169 -12 -265 -21 -38 -4 -86 -8 -105 -10 -19 -2 -62 -6 -95 -9 -33 -4 -80
-9 -105 -11 -25 -2 -63 -7 -85 -10 -22 -2 -62 -7 -90 -10 -27 -4 -63 -8 -80
-11 -16 -3 -48 -8 -70 -10 -22 -3 -51 -7 -65 -9 -14 -2 -43 -6 -65 -9 -22 -2
-56 -8 -75 -11 -19 -4 -46 -8 -60 -10 -43 -6 -105 -15 -130 -20 -13 -3 -40 -7
-60 -10 -20 -3 -47 -7 -60 -10 -14 -3 -41 -8 -60 -11 -19 -4 -44 -8 -55 -11
-11 -2 -36 -6 -55 -9 -19 -3 -42 -7 -50 -9 -8 -2 -31 -7 -50 -10 -19 -3 -42
-8 -50 -10 -8 -2 -31 -7 -50 -11 -19 -3 -39 -7 -45 -8 -5 -2 -28 -6 -50 -11
-77 -15 -111 -23 -133 -29 -9 -3 -33 -8 -52 -11 -19 -3 -71 -15 -115 -26 -44
-12 -87 -22 -95 -24 -8 -2 -44 -11 -80 -20 -36 -9 -76 -18 -90 -21 -14 -3 -43
-10 -65 -16 -22 -5 -42 -10 -45 -10 -3 0 -15 -4 -28 -9 -12 -5 -33 -11 -45
-13 -12 -3 -56 -14 -97 -26 -41 -11 -86 -23 -99 -26 -14 -3 -28 -7 -33 -10 -4
-3 -16 -7 -25 -9 -10 -2 -49 -13 -88 -25 -38 -11 -77 -22 -85 -25 -8 -2 -15
-4 -15 -5 0 -1 -7 -3 -17 -5 -9 -2 -83 -24 -165 -51 -81 -26 -152 -49 -158
-50 -34 -7 -439 -151 -670 -238 -184 -69 -236 -90 -269 -108 -10 -5 -26 -11
-35 -13 -16 -4 -317 -129 -401 -167 -25 -12 -97 -44 -160 -73 -176 -80 -587
-279 -630 -305 -8 -5 -28 -15 -45 -23 -50 -23 -284 -149 -350 -187 -16 -10
-50 -29 -75 -42 -168 -93 -335 -191 -338 -200 -2 -4 -8 -8 -14 -8 -9 0 -157
-87 -168 -100 -3 -3 -22 -14 -42 -25 -21 -11 -38 -23 -38 -27 0 -5 -5 -8 -10
-8 -12 0 -94 -52 -98 -62 -2 -5 -8 -8 -13 -8 -10 0 -310 -198 -319 -210 -3 -4
-15 -12 -28 -19 -70 -37 -545 -389 -792 -588 -124 -99 -391 -323 -420 -353 -3
-3 -39 -34 -80 -70 -132 -114 -158 -138 -378 -348 -199 -189 -416 -411 -648
-662 -211 -229 -572 -660 -757 -905 -37 -49 -79 -104 -92 -120 -13 -17 -46
-62 -74 -100 -27 -39 -54 -74 -58 -80 -30 -35 -233 -327 -233 -334 0 -5 -4
-11 -9 -13 -10 -4 -231 -336 -231 -348 0 -4 -4 -10 -8 -12 -4 -1 -50 -70 -101
-153 -52 -82 -100 -158 -109 -167 -8 -10 -11 -18 -7 -18 4 0 1 -8 -7 -17 -19
-22 -133 -215 -256 -435 -11 -18 -33 -58 -50 -89 -86 -151 -392 -756 -451
-889 -14 -30 -42 -92 -63 -137 -21 -46 -38 -85 -38 -87 0 -3 -14 -35 -31 -73
-16 -37 -34 -77 -39 -88 -38 -86 -50 -115 -50 -119 0 -3 -10 -29 -23 -58 -31
-70 -44 -104 -117 -293 -86 -222 -85 -219 -86 -225 0 -3 -4 -14 -8 -25 -4 -11
-12 -33 -18 -50 -5 -16 -14 -39 -19 -50 -10 -24 -38 -104 -44 -125 -2 -8 -22
-71 -45 -140 -40 -121 -99 -305 -104 -325 -2 -5 -8 -30 -15 -55 -7 -25 -13
-46 -12 -47 0 -2 -6 -18 -15 -38 -8 -19 -12 -35 -10 -35 3 0 -2 -16 -10 -35
-8 -19 -12 -35 -9 -35 2 0 0 -12 -6 -27 -6 -16 -17 -50 -24 -78 -19 -71 -96
-373 -101 -396 -2 -10 -6 -28 -9 -39 -3 -11 -7 -29 -10 -41 -2 -11 -6 -28 -9
-37 -3 -9 -7 -28 -10 -42 -8 -41 -15 -71 -20 -88 -3 -9 -8 -30 -11 -47 -6 -35
-9 -53 -24 -115 -5 -25 -13 -61 -16 -80 -3 -19 -8 -42 -10 -50 -2 -8 -7 -28
-10 -45 -2 -16 -7 -40 -9 -51 -2 -12 -7 -37 -10 -55 -3 -19 -8 -45 -11 -59 -2
-14 -7 -36 -10 -50 -2 -14 -7 -40 -10 -57 -3 -18 -7 -46 -10 -62 -3 -16 -7
-48 -10 -71 -3 -24 -7 -46 -9 -49 -2 -3 -7 -35 -11 -71 -4 -36 -8 -67 -10 -70
-2 -3 -6 -27 -9 -55 -4 -27 -9 -61 -11 -75 -2 -14 -7 -45 -9 -70 -3 -25 -7
-55 -10 -67 -3 -12 -7 -50 -11 -85 -3 -35 -8 -79 -11 -99 -2 -20 -7 -56 -9
-80 -12 -109 -17 -156 -20 -189 -5 -57 -17 -192 -20 -230 -4 -36 -13 -170 -20
-275 -16 -253 -20 -428 -20 -910 0 -484 5 -697 20 -920 6 -89 16 -214 20 -265
2 -25 6 -76 9 -115 3 -38 9 -95 12 -125 4 -30 8 -66 9 -80 10 -108 18 -171 31
-270 3 -25 7 -56 9 -70 5 -45 20 -150 30 -220 9 -59 14 -90 20 -120 3 -14 7
-43 10 -65 3 -22 7 -49 9 -60 2 -11 7 -42 11 -70 5 -27 9 -52 10 -55 1 -3 5
-25 9 -50 5 -25 10 -54 12 -65 6 -27 13 -68 19 -107 3 -18 8 -40 10 -48 2 -8
7 -28 10 -45 2 -16 7 -39 9 -50 2 -11 12 -56 21 -100 9 -44 19 -89 22 -100 2
-11 6 -31 9 -44 3 -13 12 -51 20 -85 8 -34 17 -70 19 -81 2 -11 6 -30 9 -42 8
-31 15 -59 20 -80 2 -10 9 -38 16 -63 6 -25 20 -79 30 -120 10 -41 24 -93 30
-115 6 -22 12 -47 14 -55 2 -8 9 -35 16 -60 7 -25 12 -46 11 -47 0 -2 6 -18
15 -38 8 -19 12 -35 9 -35 -3 0 2 -17 10 -37 12 -33 32 -104 35 -125 1 -4 15
-47 32 -95 16 -49 31 -95 33 -103 14 -70 249 -741 297 -850 6 -14 12 -29 14
-35 4 -18 162 -403 172 -420 4 -5 7 -12 8 -15 2 -9 16 -44 45 -108 16 -35 29
-65 29 -67 0 -2 18 -43 41 -92 22 -48 52 -113 66 -143 82 -177 307 -622 400
-790 41 -72 55 -98 103 -185 53 -95 262 -449 269 -455 3 -3 15 -22 26 -42 11
-21 23 -38 27 -38 5 0 8 -5 8 -11 0 -11 35 -66 206 -324 172 -261 274 -405
473 -670 152 -203 474 -604 570 -710 10 -11 55 -63 101 -115 46 -52 108 -122
139 -156 31 -33 94 -102 141 -154 276 -303 717 -726 1109 -1064 260 -224 496
-412 756 -605 61 -44 115 -84 121 -89 6 -5 87 -63 180 -128 93 -65 175 -124
182 -131 7 -7 19 -13 27 -13 7 0 15 -4 17 -8 4 -10 157 -112 168 -112 5 0 10
-3 12 -7 6 -14 401 -263 417 -263 5 0 11 -3 13 -8 4 -10 144 -92 156 -92 6 0
12 -4 14 -8 3 -8 42 -31 143 -88 28 -15 64 -35 80 -44 139 -77 274 -150 409
-219 87 -46 166 -86 175 -91 32 -17 372 -180 376 -180 2 0 43 -18 92 -41 48
-22 151 -68 228 -101 77 -32 149 -63 160 -68 96 -43 120 -53 130 -55 5 -1 24
-7 40 -14 27 -12 92 -38 150 -62 11 -4 58 -22 105 -39 47 -18 94 -36 105 -41
11 -5 34 -13 50 -18 17 -6 62 -21 100 -36 39 -14 77 -28 85 -30 8 -2 16 -4 18
-5 1 -2 5 -3 10 -5 4 -1 14 -5 22 -8 22 -9 429 -144 470 -155 19 -6 73 -22
120 -37 47 -14 92 -28 100 -30 8 -2 27 -8 43 -14 15 -6 27 -8 27 -6 0 3 17 -2
38 -10 31 -12 68 -23 167 -49 6 -1 30 -8 55 -15 25 -7 53 -15 62 -17 10 -2 26
-6 36 -9 32 -8 377 -95 397 -99 11 -3 29 -7 40 -10 11 -2 74 -16 140 -31 66
-14 138 -30 160 -35 22 -5 58 -12 80 -16 22 -4 45 -8 50 -10 6 -1 24 -5 40 -8
17 -3 40 -8 51 -10 12 -2 37 -7 55 -10 19 -3 45 -8 59 -11 14 -3 37 -7 53 -10
15 -3 39 -7 55 -10 15 -3 38 -7 52 -10 13 -2 40 -7 60 -10 20 -3 47 -7 60 -10
13 -3 42 -7 65 -10 22 -4 51 -8 65 -10 14 -2 43 -6 65 -10 23 -3 50 -7 60 -9
20 -4 82 -12 160 -21 22 -3 50 -7 62 -9 12 -3 50 -7 85 -11 35 -3 74 -8 88
-10 14 -3 52 -7 85 -10 33 -4 78 -8 100 -10 38 -4 84 -9 205 -20 611 -56 1432
-64 2060 -21 152 11 326 25 380 31 19 2 67 7 105 11 39 4 81 8 95 9 14 2 52 6
85 9 33 4 76 9 95 11 19 3 53 8 74 10 38 4 96 12 146 20 14 2 45 7 70 10 25 3
56 8 70 10 14 2 43 6 65 10 23 3 52 7 65 10 13 3 42 7 65 10 22 3 47 8 55 10
8 2 35 7 60 10 25 3 52 8 60 10 8 2 29 6 45 9 45 8 87 15 115 21 14 3 36 7 50
10 36 7 121 23 150 30 14 3 39 8 55 10 17 3 37 8 45 10 8 2 29 7 45 10 64 13
82 16 135 30 53 13 68 17 135 30 17 3 48 11 70 17 22 5 47 11 55 13 8 2 35 8
60 15 25 7 54 14 65 16 11 2 110 29 220 59 110 31 207 57 215 59 8 2 42 12 75
22 33 10 62 19 65 19 50 12 457 142 510 162 8 3 20 7 25 9 6 1 37 12 70 24 33
11 65 22 70 24 6 2 17 6 25 9 8 3 105 38 215 77 110 40 205 75 210 79 6 3 12
6 15 6 13 1 106 39 118 48 6 5 12 6 12 3 0 -4 10 -1 23 6 12 7 24 13 27 13 8
1 123 47 145 59 11 5 25 11 30 12 12 2 382 163 470 204 33 16 132 63 220 105
88 43 174 84 190 91 39 19 286 147 400 208 142 76 437 246 585 336 201 123
236 145 335 211 50 33 98 62 108 66 9 3 17 9 17 14 0 4 16 16 35 25 19 9 35
20 35 25 0 5 4 9 10 9 8 0 105 63 135 88 6 4 39 28 75 52 36 24 67 46 70 49 3
4 19 15 35 25 104 66 648 487 850 659 123 104 358 311 440 387 28 26 91 84
140 130 123 115 672 667 696 702 l21 28 -54 53 c-29 29 -98 92 -153 141 -55
49 -104 94 -110 100 -5 6 -26 24 -45 40 -36 30 -178 157 -290 262 -36 33 -103
96 -150 139 -47 43 -101 94 -120 112 -19 18 -60 55 -90 83 -30 28 -73 68 -95
88 -22 21 -76 71 -120 112 -163 150 -221 204 -275 255 -30 28 -158 147 -285
265 -212 197 -312 291 -354 330 -139 134 -366 341 -646 590 -384 342 -399 357
-707 653 -197 190 -372 341 -390 334 -3 -1 -102 -95 -220 -208 -195 -188 -304
-290 -369 -344 -22 -19 -183 -157 -219 -188 -74 -64 -373 -292 -434 -331 -29
-18 -30 -18 -45 1 -26 31 -34 44 -412 573 -198 278 -367 514 -375 525 -12 18
-263 369 -299 420 -45 62 -230 324 -391 550 -101 143 -187 265 -192 270 -4 6
-86 120 -182 255 -96 135 -178 250 -182 255 -5 6 -48 66 -96 135 -98 139 -561
790 -750 1055 l-121 170 32 25 c118 93 229 192 342 305 201 201 314 338 456
555 49 74 92 140 96 146 40 54 240 460 247 499 1 6 8 20 14 33 7 12 10 22 6
22 -3 0 -2 6 3 13 9 11 69 174 78 215 3 9 12 42 20 72 9 30 18 63 20 73 2 10
7 27 10 37 9 28 52 236 60 290 2 14 6 42 9 62 15 100 18 127 32 298 4 59 4
390 0 460 -7 106 -30 303 -41 360 -3 14 -8 41 -11 60 -4 19 -8 44 -11 55 -2
11 -8 43 -13 70 -6 28 -24 97 -40 155 -17 58 -33 115 -35 128 -9 36 -67 200
-95 267 -8 17 -14 35 -16 40 -1 6 -13 36 -28 67 -14 31 -26 62 -26 67 0 6 -5
11 -12 11 -6 0 -9 3 -5 6 6 6 -93 202 -138 274 -14 22 -25 42 -25 45 0 3 -8
18 -19 33 -10 15 -46 70 -81 122 -133 200 -243 334 -434 529 -430 440 -953
753 -1555 931 -41 12 -83 23 -93 25 -11 2 -28 7 -38 10 -10 3 -27 8 -37 10
-10 2 -54 11 -98 20 -122 26 -140 29 -230 40 -27 4 -61 8 -75 11 -158 26 -689
26 -860 -1 -14 -2 -49 -7 -79 -10 -52 -7 -68 -9 -121 -20 -14 -2 -38 -7 -55
-10 -64 -11 -91 -16 -107 -21 -9 -3 -26 -7 -37 -9 -12 -3 -30 -7 -41 -10 -11
-3 -30 -7 -42 -10 -27 -6 -157 -44 -178 -52 -8 -4 -17 -7 -20 -8 -82 -25 -218
-74 -277 -101 -90 -40 -318 -149 -323 -154 -3 -4 -25 -16 -50 -29 -25 -13 -64
-36 -88 -52 -24 -16 -45 -29 -48 -29 -26 0 -418 -294 -506 -379 -234 -227
-349 -353 -480 -526 -106 -140 -288 -439 -350 -575 -123 -269 -187 -440 -233
-620 -2 -8 -11 -41 -19 -72 -9 -32 -18 -70 -21 -85 -3 -16 -7 -39 -10 -53 -7
-28 -25 -125 -30 -155 -34 -215 -40 -297 -40 -585 0 -236 4 -337 20 -448 18
-131 29 -201 40 -252 4 -14 8 -34 10 -45 14 -67 26 -119 45 -190 13 -44 23
-84 24 -90 3 -14 36 -116 46 -140 4 -11 16 -42 25 -70 55 -157 243 -554 266
-563 5 -2 9 -9 9 -15 0 -16 125 -208 209 -322 186 -252 414 -488 659 -683 34
-28 59 -52 54 -54 -7 -2 -102 -139 -137 -195 -5 -9 -16 -23 -23 -32 -11 -13
-259 -369 -490 -701 -28 -41 -57 -81 -63 -89 -7 -7 -36 -49 -65 -92 -30 -43
-74 -107 -99 -141 -25 -35 -51 -72 -59 -83 -39 -54 -433 -605 -455 -636 -100
-141 -122 -171 -131 -182 -6 -6 -74 -100 -151 -207 -77 -107 -149 -206 -159
-220 -11 -14 -92 -124 -182 -245 -151 -204 -422 -564 -486 -645 -344 -438
-549 -670 -593 -670 -16 0 -131 77 -137 92 -2 4 -49 42 -105 84 -56 43 -109
83 -117 91 -8 7 -51 43 -95 79 -204 169 -597 552 -831 809 -225 248 -540 647
-714 905 -35 52 -68 96 -72 98 -4 2 -8 8 -8 13 0 5 -29 53 -63 106 -53 82
-112 176 -157 253 -150 256 -240 422 -371 690 -49 102 -96 196 -104 210 -7 14
-23 48 -33 75 -11 28 -33 77 -48 110 -16 33 -29 62 -30 65 -1 6 -13 36 -32 80
-8 19 -16 37 -16 40 -1 3 -11 30 -23 60 -22 54 -39 98 -43 112 -1 4 -20 54
-41 110 -22 57 -42 110 -44 118 -2 8 -22 71 -45 140 -23 69 -43 130 -44 135
-5 21 -28 101 -34 115 -7 19 -10 31 -15 55 -3 11 -17 63 -32 115 -15 52 -29
103 -31 113 -9 38 -13 55 -29 122 -9 39 -19 79 -21 90 -3 11 -7 31 -10 45 -3
14 -9 41 -14 60 -12 46 -49 226 -56 270 -3 19 -8 42 -11 50 -3 8 -7 24 -8 35
-11 80 -17 112 -20 125 -6 22 -13 68 -20 126 -3 28 -7 61 -10 73 -8 43 -21
159 -30 276 -22 269 -30 511 -30 960 0 398 7 626 19 691 2 11 7 54 10 96 4 41
9 86 11 99 3 13 7 48 10 79 3 31 7 66 10 79 2 14 7 47 10 75 3 28 8 65 11 81
3 17 7 46 9 65 2 19 6 49 9 65 3 17 8 50 10 75 3 25 7 54 10 65 2 11 7 43 10
70 4 28 9 57 11 65 2 8 6 31 9 50 3 19 8 46 11 60 3 14 7 36 10 50 5 28 13 64
19 95 2 11 9 40 16 65 7 25 14 53 16 62 9 41 15 62 69 258 31 113 70 249 86
304 17 54 32 106 34 115 2 9 18 54 34 101 17 47 31 85 30 85 0 0 5 14 11 30 7
17 13 35 14 40 2 6 9 24 15 40 7 17 14 37 16 46 2 9 8 25 14 35 6 11 20 42 32
69 12 28 34 78 50 113 16 35 29 65 29 67 0 3 34 80 86 193 13 29 24 55 24 59
0 4 13 34 29 67 16 34 39 84 51 111 85 191 258 536 313 628 8 12 38 63 67 112
206 351 599 896 873 1210 71 81 236 265 261 291 360 372 618 610 991 913 179
145 624 459 815 575 25 15 68 41 95 58 51 31 191 113 280 163 80 45 484 248
555 280 36 15 92 41 125 56 33 15 94 42 135 59 41 17 84 35 95 40 25 11 144
58 260 103 50 19 182 65 295 102 200 66 217 71 233 74 4 0 23 7 42 15 20 9 38
15 40 16 3 0 6 0 8 1 1 0 9 2 18 4 9 1 59 15 110 30 52 15 102 29 112 31 9 2
26 6 37 9 11 3 29 7 40 10 11 3 29 7 40 10 11 3 28 7 38 9 9 2 37 9 62 16 56
15 77 20 115 26 17 3 48 10 70 16 22 5 49 12 60 14 11 2 43 8 70 14 55 11 87
18 125 25 14 3 36 7 50 10 13 2 40 7 60 10 20 3 47 8 60 10 14 3 39 7 55 9 17
3 44 7 60 10 36 5 93 13 155 21 25 4 56 8 70 10 14 3 50 7 80 10 30 3 73 7 95
10 22 2 76 7 120 11 44 3 100 8 125 10 290 23 802 23 1125 0 22 -2 85 -6 140
-10 96 -7 145 -11 258 -20 28 -3 86 -8 127 -11 271 -22 368 -35 600 -80 32 -6
101 -21 143 -30 12 -3 33 -7 47 -10 14 -3 40 -9 58 -14 18 -5 35 -10 37 -10 3
0 18 -2 33 -5 15 -4 37 -9 50 -11 12 -3 32 -8 45 -11 12 -3 34 -7 48 -9 14 -2
38 -9 52 -14 15 -6 27 -8 27 -6 0 2 11 0 26 -5 14 -6 37 -12 52 -15 15 -2 57
-13 95 -24 37 -11 67 -18 67 -16 0 2 19 -2 41 -11 23 -8 51 -16 63 -19 12 -2
46 -11 76 -20 30 -9 62 -17 70 -20 67 -16 370 -123 528 -186 70 -28 132 -52
137 -53 30 -8 312 -133 500 -222 33 -15 62 -28 65 -29 30 -6 560 -285 678
-357 34 -21 65 -38 68 -38 2 0 10 -5 17 -10 7 -6 73 -51 147 -100 74 -49 140
-93 146 -98 5 -5 30 -22 55 -38 24 -16 46 -31 49 -34 3 -3 46 -34 95 -70 50
-35 92 -68 93 -72 2 -4 8 -8 13 -8 5 0 29 -15 53 -32 24 -18 55 -41 70 -52
200 -143 218 -157 375 -284 189 -152 263 -220 609 -564 l222 -221 53 49 c123
114 280 258 392 359 66 59 134 121 150 136 17 16 39 36 51 46 12 10 66 59 120
109 54 50 153 140 219 200 66 60 140 127 165 150 144 131 390 354 418 379 19
17 53 47 75 68 98 90 117 107 211 192 55 50 114 104 132 120 17 17 71 66 120
110 48 44 118 107 154 139 36 32 74 68 86 80 12 12 34 32 50 45 28 24 412 373
519 472 28 25 104 95 170 154 66 59 127 115 136 124 9 9 31 29 50 45 19 17 86
77 149 134 63 58 138 126 165 151 172 156 245 225 245 230 0 7 -181 196 -384
401 -170 172 -368 360 -551 524 -66 60 -136 123 -155 140 -367 333 -990 813
-1471 1132 -90 60 -165 112 -167 117 -2 4 -8 7 -13 7 -5 0 -40 20 -77 44 -104
67 -193 123 -273 171 -10 6 -57 33 -106 61 -238 139 -339 197 -410 235 -43 23
-105 56 -138 74 -225 122 -714 359 -910 442 -33 14 -78 33 -100 43 -22 10 -69
30 -105 45 -36 14 -78 32 -95 39 -16 7 -73 30 -125 51 -52 21 -108 43 -125 51
-28 12 -108 42 -130 48 -5 2 -22 8 -37 14 -35 15 -280 103 -293 107 -5 1 -17
5 -25 8 -22 10 -442 148 -460 152 -8 2 -28 8 -45 15 -16 6 -32 12 -35 12 -3 0
-9 2 -15 4 -14 5 -187 55 -205 59 -8 2 -49 14 -90 25 -41 12 -82 23 -90 25 -8
2 -76 20 -150 40 -74 20 -143 38 -152 41 -10 2 -27 6 -38 9 -11 3 -29 7 -40
10 -11 3 -28 7 -37 9 -10 3 -49 12 -88 21 -102 23 -105 24 -123 29 -9 3 -29 8
-44 11 -16 3 -38 7 -50 10 -166 36 -212 46 -332 70 -44 8 -93 18 -110 21 -17
2 -38 7 -46 9 -8 2 -31 6 -50 9 -19 3 -46 8 -60 11 -14 3 -40 8 -59 11 -18 3
-41 7 -50 9 -9 1 -36 6 -61 10 -25 4 -54 9 -65 11 -11 2 -40 7 -65 10 -25 3
-54 8 -65 10 -11 2 -40 7 -65 9 -25 3 -52 8 -60 10 -8 2 -40 7 -70 11 -30 3
-64 7 -75 9 -11 1 -47 6 -80 10 -33 3 -71 8 -85 10 -14 3 -47 7 -75 10 -27 3
-66 8 -85 10 -19 2 -64 7 -100 10 -36 3 -81 8 -100 10 -19 2 -69 7 -110 10
-41 4 -97 8 -125 11 -76 6 -277 19 -480 30 -104 5 -963 13 -968 8z"/>
</g>
</svg>
